<svg xmlns="http://www.w3.org/2000/svg" width="52.7443mm" height="50.9781mm" viewBox="0 0 149.5113 144.505">
  <defs>
    <style>
      .cls-1 {
        fill: none;
        stroke-width: 3px;
      }

      .cls-1, .cls-3 {
        stroke: #fff;
        stroke-miterlimit: 10;
      }

      .cls-2, .cls-3 {
        fill: #fff;
      }
    </style>
  </defs>
  <g id="Слой_2" data-name="Слой 2">
    <g id="Слой_1-2" data-name="Слой 1">
      <g>
        <path class="cls-1" d="M137.46,104.9777A70.7362,70.7362,0,0,1,5.0884,84.6031"/>
        <polygon class="cls-2" points="121.436 103.741 144.422 84.598 149.511 114.074 121.436 103.741"/>
      </g>
      <g>
        <path class="cls-1" d="M144.4221,59.907a70.7361,70.7361,0,0,0-132.37-20.3843"/>
        <polygon class="cls-2" points="0 30.425 5.089 59.902 28.075 40.76 0 30.425"/>
      </g>
      <path class="cls-3" d="M69.1553,56.1752a17.4357,17.4357,0,1,0-7.4563,7.4489l34.38,34.38-6.7533,6.7533,3.2457,3.2458,2.5765-2.5764,3.2457,3.2457-3.2869,3.287,3.2458,3.2457,14.9164-14.9163ZM49.8564,51.9609a5.4046,5.4046,0,1,1,7.6433,0A5.4076,5.4076,0,0,1,49.8564,51.9609Z"/>
    </g>
  </g>
</svg>
