<?xml version="1.0" encoding="utf-8"?>
<!-- Generator: Adobe Illustrator 26.2.1, SVG Export Plug-In . SVG Version: 6.00 Build 0)  -->
<svg version="1.1" id="Слой_1" xmlns="http://www.w3.org/2000/svg" xmlns:xlink="http://www.w3.org/1999/xlink" x="0px" y="0px"
	 viewBox="0 0 149.5 144.5" style="enable-background:new 0 0 149.5 144.5;" xml:space="preserve">
<style type="text/css">
	.st0{fill:none;stroke:#1D1D1B;stroke-width:3;stroke-miterlimit:10;}
	.st1{fill:#1D1D1B;stroke:#1D1D1B;stroke-miterlimit:10;}
</style>
<g id="Слой_2_00000076563076947349959730000005277603678892095634_">
	<g id="Слой_1-2">
		<g>
			<path class="st0" d="M137.5,105c-18.1,34.6-60.8,48.1-95.4,30C22.6,124.8,8.9,106.2,5.1,84.6"/>
			<polygon class="st1" points="121.4,103.7 144.4,84.6 149.5,114.1 			"/>
		</g>
		<g>
			<path class="st0" d="M144.4,59.9c-6.8-38.5-43.5-64.1-82-57.3C40.8,6.4,22.2,20.1,12.1,39.5"/>
			<polygon class="st1" points="0,30.4 5.1,59.9 28.1,40.8 			"/>
		</g>
		<path class="st1" d="M69.2,56.2c4.4-8.5,1.1-19.1-7.4-23.5s-19.1-1.1-23.5,7.4s-1.1,19.1,7.4,23.5c5,2.6,11,2.6,16.1,0L96.1,98
			l-6.8,6.8l3.2,3.2l2.6-2.6l3.2,3.2l-3.3,3.3l3.2,3.2l14.9-14.9L69.2,56.2z M49.9,52c-2.1-2.1-2.1-5.5,0-7.6c2.1-2.1,5.5-2.1,7.6,0
			c2.1,2.1,2.1,5.5,0,7.6C55.4,54.1,52,54.1,49.9,52z"/>
	</g>
</g>
</svg>
