<?xml version="1.0" encoding="utf-8"?>
<!-- Generator: Adobe Illustrator 26.2.1, SVG Export Plug-In . SVG Version: 6.00 Build 0)  -->
<svg version="1.1" id="Слой_1" xmlns="http://www.w3.org/2000/svg" xmlns:xlink="http://www.w3.org/1999/xlink" x="0px" y="0px"
	 viewBox="0 0 113 113" style="enable-background:new 0 0 113 113;" xml:space="preserve">
<style type="text/css">
	.st0{fill:#1D1D1B;stroke:#1D1D1B;stroke-miterlimit:10;}
	.st1{fill:#FFFFFF;stroke:#1D1D1B;stroke-miterlimit:10;}
</style>
<g id="Слой_2_00000090273661367916960630000003226918339747672992_">
	<g id="Слой_1-2">
		<path class="st0" d="M112.5,31.2v75.7c0,3.1-2.5,5.6-5.6,5.6c0,0,0,0,0,0H6.1c-3.1,0-5.6-2.5-5.6-5.6c0,0,0,0,0,0V6.1
			C0.5,3,3,0.5,6.1,0.5c0,0,0,0,0,0h75.7L112.5,31.2z"/>
		<path class="st1" d="M21.9,10.3H78c3.4,0,6.2,2.8,6.2,6.2v12.4c0,3.4-2.8,6.2-6.2,6.2H21.9c-3.4,0-6.2-2.8-6.2-6.2V16.5
			C15.7,13.1,18.5,10.3,21.9,10.3z"/>
		<path class="st1" d="M28.6,47.6H83c6,0,10.9,4.9,10.9,10.9l0,0v45.9l0,0H17.6l0,0V58.6C17.6,52.5,22.5,47.6,28.6,47.6L28.6,47.6z"
			/>
		<rect x="99.1" y="86.1" class="st1" width="6.7" height="6.7"/>
		<rect x="6.4" y="86.1" class="st1" width="6.7" height="6.7"/>
		<path class="st0" d="M74.4,13.2h2.1c1.4,0,2.6,1.2,2.6,2.6v12.4c0,1.4-1.2,2.6-2.6,2.6h-2.1c-1.4,0-2.6-1.2-2.6-2.6V15.8
			C71.8,14.4,73,13.2,74.4,13.2z"/>
	</g>
</g>
</svg>
